<svg width="20" height="20" viewBox="0 0 20 20" fill="none" xmlns="http://www.w3.org/2000/svg">
<g clip-path="url(#clip0_1010_781)">
<path d="M16.3557 19.9344C15.4843 19.9344 14.2602 19.6192 12.4271 18.5951C10.1981 17.3451 8.47393 16.191 6.25694 13.9799C4.11942 11.8437 3.07923 10.4606 1.6234 7.81148C-0.0212583 4.82038 0.259102 3.2525 0.572499 2.5824C0.945718 1.7815 1.49662 1.30248 2.20868 0.827024C2.61313 0.562037 3.04113 0.334883 3.48727 0.148444C3.53191 0.129248 3.57343 0.110944 3.61048 0.0944259C3.83147 -0.00512888 4.16629 -0.155577 4.5904 0.0051391C4.87344 0.11139 5.12613 0.328804 5.52167 0.719433C6.33284 1.51944 7.44133 3.30116 7.85026 4.17617C8.12482 4.76591 8.30652 5.1552 8.30697 5.59181C8.30697 6.10298 8.04982 6.49718 7.73776 6.92263C7.67928 7.00254 7.62124 7.07888 7.56499 7.15299C7.22526 7.59943 7.1507 7.72845 7.19981 7.95881C7.29937 8.42176 8.04179 9.7999 9.26189 11.0173C10.482 12.2348 11.8204 12.9303 12.2851 13.0294C12.5253 13.0807 12.657 13.0031 13.1177 12.6513C13.1838 12.6008 13.2517 12.5486 13.3227 12.4964C13.7986 12.1423 14.1744 11.8919 14.6736 11.8919H14.6762C15.1106 11.8919 15.4825 12.0803 16.0986 12.391C16.9022 12.7964 18.7374 13.8906 19.5424 14.7026C19.9339 15.0973 20.1522 15.3491 20.2589 15.6317C20.4196 16.0571 20.2683 16.3906 20.1696 16.6138C20.1531 16.6509 20.1348 16.6915 20.1156 16.7366C19.9277 17.1819 19.6992 17.609 19.433 18.0125C18.9584 18.7223 18.4776 19.2719 17.6749 19.6456C17.2628 19.8405 16.8117 19.9393 16.3557 19.9344Z" fill="#677482"/>
</g>
<defs>
<clipPath id="clip0_1010_781">
<rect width="20" height="20" fill="white"/>
</clipPath>
</defs>
</svg>
