<svg width="20" height="20" viewBox="0 0 20 20" fill="none" xmlns="http://www.w3.org/2000/svg">
<path d="M16 8.7V16.75C16 16.9798 15.9547 17.2074 15.8668 17.4197C15.7788 17.632 15.6499 17.8249 15.4874 17.9874C15.3249 18.1499 15.132 18.2788 14.9197 18.3668C14.7074 18.4547 14.4798 18.5 14.25 18.5H3.75C3.28587 18.5 2.84075 18.3156 2.51256 17.9874C2.18437 17.6592 2 17.2141 2 16.75V6.25C2 5.78587 2.18437 5.34075 2.51256 5.01256C2.84075 4.68437 3.28587 4.5 3.75 4.5H11.0773" stroke="white" stroke-width="1.68" stroke-linecap="round" stroke-linejoin="round"/>
<path d="M19.3224 1.2297C19.2584 1.15946 19.1809 1.1029 19.0945 1.06346C19.0081 1.02401 18.9146 1.00249 18.8197 1.0002C18.7247 0.997914 18.6303 1.0149 18.5421 1.05013C18.4539 1.08537 18.3737 1.13812 18.3065 1.2052L17.7653 1.74376C17.6997 1.80939 17.6629 1.89838 17.6629 1.99117C17.6629 2.08396 17.6997 2.17294 17.7653 2.23858L18.2614 2.73383C18.2939 2.7665 18.3326 2.79243 18.3752 2.81012C18.4177 2.82781 18.4634 2.83691 18.5095 2.83691C18.5556 2.83691 18.6012 2.82781 18.6438 2.81012C18.6864 2.79243 18.725 2.7665 18.7575 2.73383L19.2852 2.20883C19.552 1.94239 19.577 1.50839 19.3224 1.2297ZM16.6711 2.83751L8.77336 10.7213C8.72547 10.769 8.69067 10.8282 8.67229 10.8932L8.30698 11.9813C8.29823 12.0108 8.29761 12.0421 8.30519 12.072C8.31276 12.1018 8.32826 12.1291 8.35003 12.1508C8.3718 12.1726 8.39905 12.1881 8.4289 12.1957C8.45874 12.2033 8.49008 12.2026 8.51961 12.1939L9.60679 11.8286C9.67183 11.8102 9.73104 11.7754 9.77873 11.7275L17.6625 3.82889C17.7354 3.75517 17.7763 3.65565 17.7763 3.55195C17.7763 3.44825 17.7354 3.34873 17.6625 3.27501L17.2272 2.83751C17.1534 2.76391 17.0534 2.72258 16.9491 2.72258C16.8449 2.72258 16.7449 2.76391 16.6711 2.83751Z" fill="white"/>
</svg>
