<svg width="20" height="20" viewBox="0 0 20 20" fill="none" xmlns="http://www.w3.org/2000/svg">
<path d="M17.5 3H2.5C1.83718 3.00068 1.2017 3.25231 0.733016 3.6997C0.264329 4.14708 0.000709029 4.75367 0 5.38636V15.6136C0.000709029 16.2463 0.264329 16.8529 0.733016 17.3003C1.2017 17.7477 1.83718 17.9993 2.5 18H17.5C18.1628 17.9993 18.7983 17.7477 19.267 17.3003C19.7357 16.8529 19.9993 16.2463 20 15.6136V5.38636C19.9993 4.75367 19.7357 4.14708 19.267 3.6997C18.7983 3.25231 18.1628 3.00068 17.5 3ZM16.867 6.9473L10.4384 11.72C10.313 11.8131 10.1588 11.8636 10 11.8636C9.84122 11.8636 9.68696 11.8131 9.56161 11.72L3.13304 6.9473C3.05751 6.89286 2.99407 6.82462 2.9464 6.74657C2.89873 6.66852 2.86779 6.5822 2.85538 6.49264C2.84296 6.40308 2.84932 6.31205 2.87408 6.22485C2.89884 6.13765 2.9415 6.05602 2.9996 5.98469C3.05769 5.91337 3.13006 5.85378 3.21249 5.80938C3.29492 5.76499 3.38577 5.73667 3.47977 5.72608C3.57376 5.71549 3.66903 5.72284 3.76002 5.7477C3.85102 5.77256 3.93593 5.81443 4.00982 5.87088L10 10.318L15.9902 5.87088C16.14 5.76291 16.3283 5.71555 16.5143 5.73905C16.7004 5.76256 16.8693 5.85503 16.9845 5.99647C17.0997 6.13792 17.152 6.31697 17.13 6.4949C17.108 6.67283 17.0135 6.83535 16.867 6.9473Z" fill="#677482"/>
</svg>
