<svg width="20" height="20" viewBox="0 0 20 20" fill="none" xmlns="http://www.w3.org/2000/svg">
<path d="M10 10C10.9585 10 11.8954 9.70676 12.6924 9.15735C13.4893 8.60794 14.1105 7.82705 14.4773 6.91342C14.8441 5.99979 14.94 4.99445 14.753 4.02455C14.566 3.05465 14.1045 2.16373 13.4267 1.46447C12.749 0.765206 11.8855 0.289002 10.9454 0.0960758C10.0054 -0.0968502 9.03098 0.00216642 8.14546 0.380605C7.25994 0.759043 6.50307 1.3999 5.97057 2.22215C5.43807 3.0444 5.15385 4.01109 5.15385 5C5.15385 6.32608 5.66442 7.59785 6.57325 8.53553C7.48208 9.47322 8.71472 10 10 10ZM10 11.4286C6.99625 11.4286 1 13.3429 1 17.1429V20H19V17.1429C19 13.3429 13.0038 11.4286 10 11.4286Z" fill="#677482"/>
</svg>
