<svg width="20" height="20" viewBox="0 0 20 20" fill="none" xmlns="http://www.w3.org/2000/svg">
<path d="M10 0C6.13556 0 3 2.87991 3 6.42857C3 12.1429 10 20 10 20C10 20 17 12.1429 17 6.42857C17 2.87991 13.8644 0 10 0ZM10 10C9.44621 10 8.90486 9.83243 8.4444 9.51848C7.98395 9.20454 7.62506 8.75831 7.41314 8.23624C7.20121 7.71416 7.14576 7.13969 7.2538 6.58546C7.36184 6.03122 7.62851 5.52213 8.0201 5.12255C8.41169 4.72297 8.9106 4.45086 9.45375 4.34061C9.99689 4.23037 10.5599 4.28695 11.0715 4.5032C11.5831 4.71945 12.0204 5.08566 12.3281 5.55551C12.6358 6.02537 12.8 6.57777 12.8 7.14286C12.7992 7.90036 12.5039 8.62661 11.979 9.16225C11.4541 9.69789 10.7424 9.99917 10 10Z" fill="#677482"/>
</svg>
