<svg width="20" height="20" viewBox="0 0 20 20" fill="none" xmlns="http://www.w3.org/2000/svg">
<g clip-path="url(#clip0_1010_789)">
<path d="M5.46831 0C4.2835 -5.33333e-08 3.14557 0.486408 2.30858 1.34375C1.47158 2.20109 1 3.36028 1 4.57161V10.6693C1.00127 11.0376 1.29637 11.3347 1.65748 11.3333H6.88795H7.53905H7.54416V4.67057C7.54416 2.83815 8.36626 1.12755 9.74257 0H5.57938H5.46831ZM13.4206 0.00520833C12.6302 0.00520833 11.8398 0.213928 11.1328 0.630208C9.71837 1.46312 8.84635 3.0038 8.84635 4.67057V11.3333H11.4622H17.3438C17.7049 11.3347 17.9987 11.0376 18 10.6693V4.67057C18 4.46177 17.986 4.25447 17.9591 4.05078C17.9324 3.84768 17.892 3.64834 17.8404 3.45312C17.8191 3.37311 17.7867 3.29727 17.7613 3.21875C17.6617 2.91307 17.5395 2.6166 17.3821 2.33854C17.2834 2.16413 17.1739 1.99627 17.054 1.83594C16.998 1.76102 16.932 1.69386 16.8714 1.6224C16.802 1.54073 16.7372 1.45573 16.6621 1.37891C16.3809 1.09131 16.0608 0.838448 15.7071 0.630208C15.226 0.346919 14.7058 0.167498 14.1739 0.0768229C13.9811 0.0498567 13.7878 0.032286 13.5942 0.0247396C13.5894 0.0230396 13.585 0.0211112 13.5802 0.0195312C13.5605 0.0151284 13.5402 0.0141208 13.5202 0.0117187C13.4869 0.0109784 13.4539 0.0052084 13.4206 0.00520833ZM11.3946 4.67057C11.4171 4.66938 11.4397 4.66938 11.4622 4.67057H15.3841C15.555 4.67444 15.7175 4.74637 15.837 4.87098C15.9565 4.99558 16.0234 5.16295 16.0234 5.33724C16.0234 5.51153 15.9565 5.6789 15.837 5.8035C15.7175 5.9281 15.555 6.00004 15.3841 6.0039H11.4622C11.2912 6.0091 11.1249 5.94576 10.9991 5.82746C10.8732 5.70917 10.7978 5.54531 10.7889 5.37099C10.7801 5.19668 10.8385 5.02576 10.9517 4.89484C11.0649 4.76392 11.2239 4.68342 11.3946 4.67057ZM7.53905 12.668V19.3359C7.54036 19.7042 7.83414 20.0014 8.19525 20H10.1536C10.5129 19.9987 10.8035 19.7023 10.8047 19.3359V12.668H7.53905Z" fill="#677482"/>
</g>
<defs>
<clipPath id="clip0_1010_789">
<rect width="20" height="20" fill="white"/>
</clipPath>
</defs>
</svg>
